<?xml version="1.0" standalone="no"?>
<!DOCTYPE svg PUBLIC "-//W3C//DTD SVG 20010904//EN"
 "http://www.w3.org/TR/2001/REC-SVG-20010904/DTD/svg10.dtd">
<svg version="1.0" xmlns="http://www.w3.org/2000/svg"
 width="500.000000pt" height="500.000000pt" viewBox="0 0 500.000000 500.000000"
 preserveAspectRatio="xMidYMid meet">
<metadata>
Created by potrace 1.14, written by Peter Selinger 2001-2017
</metadata>
<g transform="translate(0.000000,500.000000) scale(0.100000,-0.100000)"
fill="#000000" stroke="none">
<path d="M832 3078 c-42 -101 -326 -801 -351 -865 l-21 -53 109 0 109 0 17 50
17 50 161 0 162 0 18 -50 18 -50 108 0 108 0 -201 495 c-110 272 -206 495
-212 495 -7 0 -26 -33 -42 -72z m122 -615 c7 -23 6 -23 -78 -23 -47 0 -86 4
-86 9 0 5 19 62 42 127 l41 117 37 -104 c21 -57 40 -114 44 -126z"/>
<path d="M3990 3139 c-108 -21 -250 -122 -315 -224 -35 -55 -70 -154 -79 -225
-10 -75 10 -194 45 -268 60 -126 220 -253 336 -269 l39 -5 12 78 c7 43 9 81 5
84 -5 4 -26 12 -49 18 -125 36 -223 176 -224 323 0 78 11 116 56 185 136 207
470 184 580 -41 40 -83 44 -196 8 -288 -4 -12 12 -25 65 -52 l71 -36 22 48
c19 41 22 66 22 173 1 107 -2 133 -22 181 -95 238 -326 366 -572 318z"/>
<path d="M1458 3132 l-28 -3 0 -264 0 -263 58 15 c31 8 74 19 95 24 27 7 37
15 37 29 0 23 13 26 29 6 9 -11 28 -9 111 13 55 14 100 28 100 31 0 6 -330
374 -358 400 -10 9 -29 14 -44 12z"/>
<path d="M2068 2933 c-98 -109 -172 -199 -165 -200 6 -2 100 21 207 50 l195
52 3 148 3 147 -33 0 c-30 0 -48 -17 -210 -197z"/>
<path d="M3108 3117 c-122 -35 -208 -150 -208 -277 0 -127 75 -212 253 -286
97 -41 127 -69 127 -119 0 -25 -8 -40 -32 -60 -31 -26 -37 -27 -118 -23 -69 3
-98 10 -152 35 l-66 31 -6 -31 c-3 -18 -8 -62 -12 -99 l-7 -68 49 -21 c124
-53 274 -61 373 -19 69 30 135 103 155 171 51 169 -28 290 -246 380 -110 45
-139 81 -117 146 13 41 52 63 111 63 37 0 64 -5 157 -31 12 -3 18 15 27 76 7
44 13 85 13 91 1 16 -107 44 -187 50 -39 2 -87 -2 -114 -9z"/>
<path d="M2510 2640 l0 -480 95 0 95 0 0 480 0 480 -95 0 -95 0 0 -480z"/>
<path d="M2205 2527 l-80 -22 -3 -172 -2 -173 95 0 95 0 0 195 c0 150 -3 195
-12 194 -7 0 -49 -10 -93 -22z"/>
<path d="M1560 2354 c-30 -9 -72 -20 -92 -25 l-38 -10 0 -79 0 -80 95 0 95 0
0 105 c0 58 -1 105 -2 104 -2 0 -28 -7 -58 -15z"/>
</g>
</svg>
